# xmcd CD database file
#
# Track frame offsets:
#	182
#	14802
#	28482
#	44212
#	58972
#	74117
#	88387
#	105407
#	123467
#	139592
#	164602
#	189372
#	202010
#	222440
#
# Disc length: 3257 seconds
#
# Revision: 1
# Processed by: cddbd v1.5.2PL0 Copyright (c) Steve Scherf et al.
# Submitted via: CDex 1.70beta2
#
DISCID=ed0cb70e
DTITLE=Duke Ellinfton - Black Beauty
DYEAR=1900
DGENRE=Jazz
TTITLE0=The Mooche
TTITLE1=Black Beauty
TTITLE2=Black An an Fantasy
TTITLE3=The Blues With A Feeling
TTITLE4=Misty Morning
TTITLE5=The Beautiful American
TTITLE6=Cottontail
TTITLE7=I Don't Mean A Thing
TTITLE8=Don't Get Around Much Anymore
TTITLE9=I Got It Bad And That Ain't Good
TTITLE10=Tenderly
TTITLE11=Things Ain't What They Used To Be
TTITLE12=Perdido
TTITLE13=Satin doll
EXTD=
EXTT0=
EXTT1=
EXTT2=
EXTT3=
EXTT4=
EXTT5=
EXTT6=
EXTT7=
EXTT8=
EXTT9=
EXTT10=
EXTT11=
EXTT12=
EXTT13=
PLAYORDER=
